# xmcd
#
# Track frame offsets: 
#        150
#        36264
#        121687
#        149649
#        154389
#        175899
#        236462
#        252712
#
# Disc length: 3886 seconds
#
# Revision: 0
# Processed by: cddbd v1.4PL0 Copyright (c) Steve Scherf et al.
# Submitted via: ExactAudioCopy v0.90b4
#
DISCID=710f2c08
DTITLE=The King's Jam - Jimi Hendrix And BB King
DYEAR=1968
DGENRE=Blues
TTITLE0=Like A Rolling Stone
TTITLE1=Blues Jam No. 1 Part I
TTITLE2=Blues Jam No. 1 Part II
TTITLE3=Band Introduction By BB. King
TTITLE4=Blues Jam No. 2 Part I
TTITLE5=Blues Jam No. 2 Part II
TTITLE6=Blues Jam No. 3
TTITLE7=It's My Own Fault
EXTD=
EXTT0=
EXTT1=
EXTT2=
EXTT3=
EXTT4=
EXTT5=
EXTT6=
EXTT7=
PLAYORDER=
